<svg id="logo" xmlns="http://www.w3.org/2000/svg" viewBox="0 0 628.9 344.1"><defs><style>path{fill:#1d1e20}@media (prefers-color-scheme:dark){path{fill:#fff}}</style></defs><path d="M167.2 0s31.1 51.6 47.3 78.7h-10c-19.9 0-39.7-.3-59 6a90.7 90.7 0 0 0-64.1 91.7 92 92 0 0 0 74 83.5 85.8 85.8 0 0 0 91.6-39.5c16.3-25.5 30.8-52.1 46-78.3l52.9-91.4c.4-.8 1-1.5 2-2.9l47.3 83.7-29.1 49.6c-16.4 27.8-32.4 56-49.3 83.5a157.6 157.6 0 0 1-115.6 77c-54 8-103.6-2.8-145.3-39.8C23.6 273 6.6 236 1.5 193.5c-4.9-40.5 2-78.9 23.2-114C51 35.7 90.9 11.6 140.4 2.7 149.1 1 167.2 0 167.2 0ZM536.4.1H629C563 114 497.6 229.9 431.5 344c-16-26.8-31.5-55.6-47.2-82L536.4 0Z"/><path d="M230.8 0H321l-45 79.5L230.7 0Z"/></svg>